# xmcd
#
# Track frame offsets: 
#        150
#        16506
#        52335
#        87932
#
# Disc length: 1627 seconds
#
# Revision: 0
# Processed by: cddbd v1.5.1PL2 Copyright (c) Steve Scherf et al.
# Submitted via: ExactAudioCopy v0.95a5
#
DISCID=27065904
DTITLE=Awex - Adrenalin
DYEAR=1900
DGENRE=
TTITLE0=video cut
TTITLE1=club mix
TTITLE2=nonvox mix
TTITLE3=boca remix
EXTD=
EXTT0=
EXTT1=
EXTT2=
EXTT3=
PLAYORDER=
